<mxfile host="app.diagrams.net" modified="2021-05-12T04:20:25.338Z" agent="5.0 (Macintosh; Intel Mac OS X 10_15_6) AppleWebKit/537.36 (KHTML, like Gecko) Chrome/90.0.4430.93 Safari/537.36" etag="cqjvbrRLLKsdStXfJL9R" version="14.6.11" type="github">
  <diagram id="A1Ll4xMSJyslP8D5Uw_K" name="Page-1">
    <mxGraphModel dx="569" dy="510" grid="1" gridSize="10" guides="1" tooltips="1" connect="1" arrows="1" fold="1" page="1" pageScale="1" pageWidth="827" pageHeight="1169" math="0" shadow="0">
      <root>
        <mxCell id="0" />
        <mxCell id="1" parent="0" />
        <mxCell id="RVxFYE3tp8AXehIDu2Ks-1" value="&lt;b&gt;&lt;font style=&quot;font-size: 14px&quot; color=&quot;#990099&quot;&gt;id&lt;/font&gt;&lt;/b&gt;" style="rounded=1;whiteSpace=wrap;html=1;" vertex="1" parent="1">
          <mxGeometry x="230" y="180" width="120" height="30" as="geometry" />
        </mxCell>
        <mxCell id="RVxFYE3tp8AXehIDu2Ks-2" value="&lt;span style=&quot;color: rgb(146 , 39 , 143) ; font-family: &amp;#34;menlo&amp;#34; , monospace , &amp;#34;tahoma&amp;#34; , , ; font-size: 14px ; font-weight: 700 ; background-color: rgb(255 , 255 , 255)&quot;&gt;ProjectId&lt;/span&gt;" style="rounded=1;whiteSpace=wrap;html=1;" vertex="1" parent="1">
          <mxGeometry x="230" y="220" width="120" height="30" as="geometry" />
        </mxCell>
        <mxCell id="RVxFYE3tp8AXehIDu2Ks-3" value="&lt;span style=&quot;color: rgb(146 , 39 , 143) ; font-family: &amp;#34;menlo&amp;#34; , monospace , &amp;#34;tahoma&amp;#34; , , ; font-size: 14px ; font-weight: 700 ; background-color: rgb(255 , 255 , 255)&quot;&gt;ProjectName&lt;/span&gt;" style="rounded=1;whiteSpace=wrap;html=1;" vertex="1" parent="1">
          <mxGeometry x="230" y="260" width="120" height="30" as="geometry" />
        </mxCell>
        <mxCell id="RVxFYE3tp8AXehIDu2Ks-4" value="&lt;span style=&quot;color: rgb(146 , 39 , 143) ; font-family: &amp;#34;menlo&amp;#34; , monospace , &amp;#34;tahoma&amp;#34; , , ; font-size: 14px ; font-weight: 700 ; background-color: rgb(255 , 255 , 255)&quot;&gt;RealTotalCost&lt;/span&gt;" style="rounded=1;whiteSpace=wrap;html=1;" vertex="1" parent="1">
          <mxGeometry x="230" y="300" width="120" height="30" as="geometry" />
        </mxCell>
        <mxCell id="RVxFYE3tp8AXehIDu2Ks-5" value="&lt;span style=&quot;color: rgb(146 , 39 , 143) ; font-family: &amp;#34;menlo&amp;#34; , monospace , &amp;#34;tahoma&amp;#34; , , ; font-size: 14px ; font-weight: 700 ; background-color: rgb(255 , 255 , 255)&quot;&gt;RealTotalCostRatio&lt;/span&gt;" style="rounded=1;whiteSpace=wrap;html=1;" vertex="1" parent="1">
          <mxGeometry x="230" y="340" width="120" height="30" as="geometry" />
        </mxCell>
        <mxCell id="RVxFYE3tp8AXehIDu2Ks-6" value="&lt;span style=&quot;color: rgb(146 , 39 , 143) ; font-family: &amp;#34;menlo&amp;#34; , monospace , &amp;#34;tahoma&amp;#34; , , ; font-size: 14px ; font-weight: 700 ; background-color: rgb(255 , 255 , 255)&quot;&gt;CashPayAmount&lt;/span&gt;" style="rounded=1;whiteSpace=wrap;html=1;" vertex="1" parent="1">
          <mxGeometry x="230" y="380" width="120" height="30" as="geometry" />
        </mxCell>
        <mxCell id="RVxFYE3tp8AXehIDu2Ks-7" value="&lt;span style=&quot;color: rgb(146 , 39 , 143) ; font-family: &amp;#34;menlo&amp;#34; , monospace , &amp;#34;tahoma&amp;#34; , , ; font-size: 14px ; font-weight: 700 ; background-color: rgb(255 , 255 , 255)&quot;&gt;IncentivePayAmount&lt;/span&gt;" style="rounded=1;whiteSpace=wrap;html=1;" vertex="1" parent="1">
          <mxGeometry x="230" y="420" width="120" height="30" as="geometry" />
        </mxCell>
        <mxCell id="RVxFYE3tp8AXehIDu2Ks-8" value="&lt;span style=&quot;color: rgb(146 , 39 , 143) ; font-family: &amp;#34;menlo&amp;#34; , monospace , &amp;#34;tahoma&amp;#34; , , ; font-size: 14px ; font-weight: 700 ; background-color: rgb(255 , 255 , 255)&quot;&gt;VoucherPayAmount&lt;/span&gt;" style="rounded=1;whiteSpace=wrap;html=1;" vertex="1" parent="1">
          <mxGeometry x="230" y="460" width="120" height="30" as="geometry" />
        </mxCell>
        <mxCell id="RVxFYE3tp8AXehIDu2Ks-9" value="&lt;span style=&quot;color: rgb(146 , 39 , 143) ; font-family: &amp;#34;menlo&amp;#34; , monospace , &amp;#34;tahoma&amp;#34; , , ; font-size: 14px ; font-weight: 700 ; background-color: rgb(255 , 255 , 255)&quot;&gt;BillMonth&lt;/span&gt;" style="rounded=1;whiteSpace=wrap;html=1;" vertex="1" parent="1">
          <mxGeometry x="230" y="500" width="120" height="30" as="geometry" />
        </mxCell>
        <mxCell id="RVxFYE3tp8AXehIDu2Ks-10" value="#账单月份" style="text;html=1;strokeColor=none;fillColor=none;align=center;verticalAlign=middle;whiteSpace=wrap;rounded=0;" vertex="1" parent="1">
          <mxGeometry x="360" y="500" width="86" height="20" as="geometry" />
        </mxCell>
        <mxCell id="RVxFYE3tp8AXehIDu2Ks-11" value="劵支付金额" style="text;html=1;strokeColor=none;fillColor=none;align=center;verticalAlign=middle;whiteSpace=wrap;rounded=0;" vertex="1" parent="1">
          <mxGeometry x="360.5" y="465" width="86" height="20" as="geometry" />
        </mxCell>
        <mxCell id="RVxFYE3tp8AXehIDu2Ks-12" value="&lt;b&gt;&lt;font color=&quot;#990099&quot; style=&quot;font-size: 14px&quot;&gt;Billcost&lt;/font&gt;&lt;/b&gt;" style="rounded=1;whiteSpace=wrap;html=1;" vertex="1" parent="1">
          <mxGeometry x="30" y="340" width="120" height="60" as="geometry" />
        </mxCell>
        <mxCell id="RVxFYE3tp8AXehIDu2Ks-13" value="" style="endArrow=none;html=1;exitX=1;exitY=0.5;exitDx=0;exitDy=0;entryX=0;entryY=0.5;entryDx=0;entryDy=0;" edge="1" parent="1" source="RVxFYE3tp8AXehIDu2Ks-12" target="RVxFYE3tp8AXehIDu2Ks-2">
          <mxGeometry width="50" height="50" relative="1" as="geometry">
            <mxPoint x="250" y="420" as="sourcePoint" />
            <mxPoint x="300" y="370" as="targetPoint" />
          </mxGeometry>
        </mxCell>
        <mxCell id="RVxFYE3tp8AXehIDu2Ks-14" value="真实付款额度" style="text;html=1;strokeColor=none;fillColor=none;align=center;verticalAlign=middle;whiteSpace=wrap;rounded=0;" vertex="1" parent="1">
          <mxGeometry x="350" y="305" width="107" height="20" as="geometry" />
        </mxCell>
        <mxCell id="RVxFYE3tp8AXehIDu2Ks-15" value="项目名字" style="text;html=1;strokeColor=none;fillColor=none;align=center;verticalAlign=middle;whiteSpace=wrap;rounded=0;" vertex="1" parent="1">
          <mxGeometry x="339" y="265" width="107" height="20" as="geometry" />
        </mxCell>
        <mxCell id="RVxFYE3tp8AXehIDu2Ks-16" value="项目Id" style="text;html=1;strokeColor=none;fillColor=none;align=center;verticalAlign=middle;whiteSpace=wrap;rounded=0;" vertex="1" parent="1">
          <mxGeometry x="330" y="225" width="107" height="20" as="geometry" />
        </mxCell>
        <mxCell id="RVxFYE3tp8AXehIDu2Ks-17" value="库表主键ID" style="text;html=1;strokeColor=none;fillColor=none;align=center;verticalAlign=middle;whiteSpace=wrap;rounded=0;" vertex="1" parent="1">
          <mxGeometry x="339" y="190" width="107" height="20" as="geometry" />
        </mxCell>
        <mxCell id="RVxFYE3tp8AXehIDu2Ks-18" value="占用月度总成本比率" style="text;html=1;strokeColor=none;fillColor=none;align=center;verticalAlign=middle;whiteSpace=wrap;rounded=0;" vertex="1" parent="1">
          <mxGeometry x="360" y="345" width="117.5" height="20" as="geometry" />
        </mxCell>
        <mxCell id="RVxFYE3tp8AXehIDu2Ks-19" value="" style="endArrow=none;html=1;exitX=1;exitY=0.5;exitDx=0;exitDy=0;entryX=0;entryY=0.5;entryDx=0;entryDy=0;" edge="1" parent="1" source="RVxFYE3tp8AXehIDu2Ks-12" target="RVxFYE3tp8AXehIDu2Ks-1">
          <mxGeometry width="50" height="50" relative="1" as="geometry">
            <mxPoint x="160" y="380" as="sourcePoint" />
            <mxPoint x="240" y="245" as="targetPoint" />
          </mxGeometry>
        </mxCell>
        <mxCell id="RVxFYE3tp8AXehIDu2Ks-20" value="" style="endArrow=none;html=1;exitX=1;exitY=0.5;exitDx=0;exitDy=0;entryX=0;entryY=0.5;entryDx=0;entryDy=0;" edge="1" parent="1" source="RVxFYE3tp8AXehIDu2Ks-12" target="RVxFYE3tp8AXehIDu2Ks-3">
          <mxGeometry width="50" height="50" relative="1" as="geometry">
            <mxPoint x="160" y="380" as="sourcePoint" />
            <mxPoint x="240" y="205" as="targetPoint" />
          </mxGeometry>
        </mxCell>
        <mxCell id="RVxFYE3tp8AXehIDu2Ks-21" value="" style="endArrow=none;html=1;exitX=1;exitY=0.5;exitDx=0;exitDy=0;entryX=0;entryY=0.5;entryDx=0;entryDy=0;" edge="1" parent="1" source="RVxFYE3tp8AXehIDu2Ks-12" target="RVxFYE3tp8AXehIDu2Ks-4">
          <mxGeometry width="50" height="50" relative="1" as="geometry">
            <mxPoint x="170" y="390" as="sourcePoint" />
            <mxPoint x="250" y="215" as="targetPoint" />
          </mxGeometry>
        </mxCell>
        <mxCell id="RVxFYE3tp8AXehIDu2Ks-22" value="" style="endArrow=none;html=1;exitX=1;exitY=0.5;exitDx=0;exitDy=0;entryX=0;entryY=0.5;entryDx=0;entryDy=0;" edge="1" parent="1" source="RVxFYE3tp8AXehIDu2Ks-12" target="RVxFYE3tp8AXehIDu2Ks-5">
          <mxGeometry width="50" height="50" relative="1" as="geometry">
            <mxPoint x="180" y="400" as="sourcePoint" />
            <mxPoint x="260" y="225" as="targetPoint" />
          </mxGeometry>
        </mxCell>
        <mxCell id="RVxFYE3tp8AXehIDu2Ks-23" value="" style="endArrow=none;html=1;exitX=1;exitY=0.5;exitDx=0;exitDy=0;entryX=0;entryY=0.5;entryDx=0;entryDy=0;" edge="1" parent="1" source="RVxFYE3tp8AXehIDu2Ks-12" target="RVxFYE3tp8AXehIDu2Ks-6">
          <mxGeometry width="50" height="50" relative="1" as="geometry">
            <mxPoint x="190" y="410" as="sourcePoint" />
            <mxPoint x="270" y="235" as="targetPoint" />
          </mxGeometry>
        </mxCell>
        <mxCell id="RVxFYE3tp8AXehIDu2Ks-24" value="" style="endArrow=none;html=1;exitX=1;exitY=0.5;exitDx=0;exitDy=0;entryX=0;entryY=0.5;entryDx=0;entryDy=0;" edge="1" parent="1" source="RVxFYE3tp8AXehIDu2Ks-12" target="RVxFYE3tp8AXehIDu2Ks-7">
          <mxGeometry width="50" height="50" relative="1" as="geometry">
            <mxPoint x="200" y="420" as="sourcePoint" />
            <mxPoint x="280" y="245" as="targetPoint" />
          </mxGeometry>
        </mxCell>
        <mxCell id="RVxFYE3tp8AXehIDu2Ks-25" value="" style="endArrow=none;html=1;exitX=1;exitY=0.5;exitDx=0;exitDy=0;entryX=0;entryY=0.5;entryDx=0;entryDy=0;" edge="1" parent="1" source="RVxFYE3tp8AXehIDu2Ks-12" target="RVxFYE3tp8AXehIDu2Ks-8">
          <mxGeometry width="50" height="50" relative="1" as="geometry">
            <mxPoint x="210" y="430" as="sourcePoint" />
            <mxPoint x="290" y="255" as="targetPoint" />
          </mxGeometry>
        </mxCell>
        <mxCell id="RVxFYE3tp8AXehIDu2Ks-26" value="" style="endArrow=none;html=1;exitX=1;exitY=0.5;exitDx=0;exitDy=0;entryX=0;entryY=0.5;entryDx=0;entryDy=0;" edge="1" parent="1" source="RVxFYE3tp8AXehIDu2Ks-12" target="RVxFYE3tp8AXehIDu2Ks-9">
          <mxGeometry width="50" height="50" relative="1" as="geometry">
            <mxPoint x="220" y="440" as="sourcePoint" />
            <mxPoint x="300" y="265" as="targetPoint" />
          </mxGeometry>
        </mxCell>
        <mxCell id="RVxFYE3tp8AXehIDu2Ks-27" value="&lt;font face=&quot;helvetica&quot;&gt;现金支付金额&lt;/font&gt;" style="text;whiteSpace=wrap;html=1;" vertex="1" parent="1">
          <mxGeometry x="360" y="380" width="130" height="30" as="geometry" />
        </mxCell>
        <mxCell id="RVxFYE3tp8AXehIDu2Ks-28" value="&lt;font face=&quot;helvetica&quot;&gt;奖励金额&lt;/font&gt;" style="text;whiteSpace=wrap;html=1;" vertex="1" parent="1">
          <mxGeometry x="370" y="420" width="130" height="30" as="geometry" />
        </mxCell>
        <mxCell id="RVxFYE3tp8AXehIDu2Ks-29" value="&lt;font color=&quot;#92278f&quot;&gt;&lt;span style=&quot;font-size: 14px ; background-color: rgb(255 , 255 , 255)&quot;&gt;&lt;b&gt;CreateDate&lt;/b&gt;&lt;/span&gt;&lt;/font&gt;" style="rounded=1;whiteSpace=wrap;html=1;" vertex="1" parent="1">
          <mxGeometry x="230" y="540" width="120" height="30" as="geometry" />
        </mxCell>
        <mxCell id="RVxFYE3tp8AXehIDu2Ks-30" value="插入时间" style="text;html=1;strokeColor=none;fillColor=none;align=center;verticalAlign=middle;whiteSpace=wrap;rounded=0;" vertex="1" parent="1">
          <mxGeometry x="360.5" y="540" width="86" height="20" as="geometry" />
        </mxCell>
        <mxCell id="RVxFYE3tp8AXehIDu2Ks-31" value="" style="endArrow=none;html=1;exitX=1;exitY=0.5;exitDx=0;exitDy=0;entryX=0;entryY=0.5;entryDx=0;entryDy=0;" edge="1" parent="1" source="RVxFYE3tp8AXehIDu2Ks-12" target="RVxFYE3tp8AXehIDu2Ks-29">
          <mxGeometry width="50" height="50" relative="1" as="geometry">
            <mxPoint x="160" y="380" as="sourcePoint" />
            <mxPoint x="240" y="525" as="targetPoint" />
          </mxGeometry>
        </mxCell>
      </root>
    </mxGraphModel>
  </diagram>
</mxfile>
